<svg height="496pt" viewBox="-59 0 495 496" width="496pt" xmlns="http://www.w3.org/2000/svg"><path d="m264.5 408v48h-16c-17.679688 0-32 14.320312-32 32h-32c0-17.679688-14.320312-32-32-32h-16v-48zm0 0" fill="#f0bc5e"/><path d="m278.011719 49.847656-3.015625-4.519531c-18.910156-28.382813-50.574219-45.328125-84.695313-45.328125-56.136719 0-101.800781 45.664062-101.800781 101.800781v82.199219h8c0-17.671875 14.328125-32 32-32v-16h19.152344c18.023437 0 34.847656-9.007812 44.847656-24l-16 24h11.152344c18.023437 0 34.847656-9.007812 44.847656-24l-16 24h11.152344c18.023437 0 34.847656-9.007812 44.847656-24v40c17.671875 0 32 14.328125 32 32h8v-76.222656c0-24.386719-13.160156-46.386719-34.488281-57.929688zm0 0" fill="#f0bc5e"/><path d="m248.5 160c0 4.417969-3.582031 8-8 8s-8-3.582031-8-8 3.582031-8 8-8 8 3.582031 8 8zm0 0"/><path d="m168.5 160c0 4.417969-3.582031 8-8 8s-8-3.582031-8-8 3.582031-8 8-8 8 3.582031 8 8zm0 0"/><path d="m176.5 432h48v16h-48zm0 0"/><path d="m331.484375 296.441406-74.984375-15v-24.410156c9.359375-9.191406 16.488281-20.648438 20.457031-33.488281 19.933594-2.238281 35.542969-19.015625 35.542969-39.542969 0-19.3125-13.769531-35.472656-32-39.191406v-32.808594h-8l-6.65625-4.441406c-8.222656 12.335937-21.808594 19.808594-36.550781 20.335937 3.695312-3.367187 7.015625-7.199219 9.863281-11.460937l-13.3125-8.875c-8.222656 12.335937-21.808594 19.808594-36.550781 20.335937 3.695312-3.367187 7.015625-7.199219 9.863281-11.460937l-13.3125-8.875c-8.527344 12.800781-22.808594 20.441406-38.183594 20.441406h-11.160156v-16h-16v32.808594c-18.230469 3.71875-32 19.871094-32 39.191406 0 20.527344 15.609375 37.304688 35.542969 39.550781 3.960937 12.839844 11.089843 24.296875 20.457031 33.488281v24.410157l-74.984375 15c-26.078125 5.207031-45.015625 28.304687-45.015625 54.902343v88.648438h16v56h320v-56h16v-88.648438c0-26.597656-18.9375-49.695312-45.015625-54.910156zm-50.984375-96.441406v-38.527344c9.289062 3.3125 16 12.113282 16 22.527344 0 10.535156-6.871094 19.414062-16.335938 22.632812.183594-2.191406.335938-4.394531.335938-6.632812zm-176-16c0-10.414062 6.710938-19.214844 16-22.527344v38.527344c0 2.238281.152344 4.441406.335938 6.632812-9.464844-3.21875-16.335938-12.097656-16.335938-22.632812zm32 16v-56h11.160156c10.230469 0 20.085938-2.527344 28.839844-7.144531v7.144531h11.160156c10.230469 0 20.085938-2.527344 28.839844-7.144531v7.144531h11.160156c13.503906 0 26.328125-4.433594 36.839844-12.238281v68.238281c0 35.289062-28.710938 64-64 64s-64-28.710938-64-64zm104 69.175781v16.128907c-4.046875 4.925781-17.375 18.695312-40 18.695312-22.671875 0-35.929688-13.710938-40-18.6875v-16.128906c11.785156 6.832031 25.425781 10.816406 40 10.816406s28.214844-3.984375 40-10.824219zm-184 210.824219v-40h32v24h64c10.414062 0 19.214844 6.710938 22.527344 16zm288 0h-118.527344c3.3125-9.289062 12.113282-16 22.527344-16h64v-24h32zm16-56h-48v-72h-16v96h-48c-19.3125 0-35.472656 13.769531-39.191406 32h-17.617188c-3.71875-18.230469-19.871094-32-39.191406-32h-48v-96h-16v72h-48v-72.648438c0-19 13.519531-35.503906 32.160156-39.222656l76.640625-15.328125c6.816407 7.785157 23.785157 23.199219 51.199219 23.199219s44.382812-15.414062 51.207031-23.199219l76.640625 15.328125c18.632813 3.71875 32.152344 20.222656 32.152344 39.222656zm0 0"/><path d="m168.5 216c0 3.136719-3.390625 8.039062-5.65625 10.34375l11.3125 11.3125c.632812-.632812 4.175781-4.335938 6.945312-9.535156 4.796876 2.085937 11.191407 3.878906 19.398438 3.878906s14.601562-1.792969 19.398438-3.878906c2.769531 5.191406 6.3125 8.902344 6.945312 9.535156l11.335938-11.289062c-2.289063-2.328126-5.679688-7.230469-5.679688-10.367188s3.390625-8.039062 5.679688-10.367188l-5.679688-5.632812-5.65625-5.65625c-.917969.921875-7.984375 8.25-9.863281 17.335938-2.664063 1.703124-8.074219 4.320312-16.480469 4.320312-8.433594 0-13.855469-2.632812-16.472656-4.304688-1.878906-9.09375-8.953125-16.429687-9.871094-17.351562l-11.335938 11.289062c2.289063 2.328126 5.679688 7.230469 5.679688 10.367188zm0 0"/><path d="m227.867188 343.902344-8.054688 7.96875v3.441406c0 2.136719-.832031 4.152344-2.335938 5.65625-1.511718 1.511719-3.527343 2.34375-5.664062 2.34375h-3.3125l-2.34375 2.34375c-3.015625 3.015625-8.289062 3.015625-11.304688 0l-2.351562-2.34375h-3.320312c-2.136719 0-4.152344-.832031-5.664063-2.335938-1.511719-1.511718-2.34375-3.519531-2.335937-5.65625v-3.449218l-8.054688-7.96875-5.65625 5.378906c-9.648438 9.183594-14.96875 21.511719-14.96875 34.71875v24h16v-24c0-4.480469.929688-8.816406 2.6875-12.800781.328125.367187.671875.738281 1.023438 1.089843 3.761718 3.757813 8.554687 6.117188 13.746093 6.808594 8.3125 6.359375 20.765625 6.359375 29.078125 0 5.183594-.691406 9.984375-3.050781 13.753906-6.816406.351563-.351562.6875-.714844 1.015626-1.082031 1.765624 3.984375 2.695312 8.320312 2.695312 12.800781v24h16v-24c0-13.199219-5.320312-25.527344-14.984375-34.71875zm0 0"/><path d="m304.5 240h16v16h-16zm0 0"/><path d="m56.5 232h16v16h-16zm0 0"/><path d="m360.5 176h16v16h-16zm0 0"/><path d="m.5 272h16v16h-16zm0 0"/></svg>